<svg xmlns="http://www.w3.org/2000/svg" width="1440" height="925" fill="none" viewBox="0 0 1440 925"><g filter="url(#filter0_i)"><path fill="#fff" d="M1372.16 102.719C1446.68 67.9446 1474.18 0 1474.18 0C1474.18 0 1448.26 225.746 1474.18 365.938C1501.18 511.992 1534.02 710.33 1432 654C1198.26 524.934 1118.51 760.31 1028 778.5C937.486 796.69 839 695 772 823C732.606 898.26 644.344 968.461 617.362 991.57C624.075 994.359 622.281 997.023 610 999.5C607.986 999.906 610.936 997.073 617.362 991.57C557.151 966.553 -187.5 931.5 -187.5 931.5C-187.5 931.5 163.961 708.413 330 778.5C547 870.098 651.157 723.653 677.5 654C718.168 546.469 627.31 511.824 677.5 409C719.091 323.792 749.305 215.355 802 137.494C872.37 33.518 978.602 122.514 1094.62 137.494C1236.2 155.775 1297.65 137.494 1372.16 102.719Z"/></g><defs><filter id="filter0_i" width="1693.04" height="1003.54" x="-187.5" y="0" color-interpolation-filters="sRGB" filterUnits="userSpaceOnUse"><feFlood flood-opacity="0" result="BackgroundImageFix"/><feBlend in="SourceGraphic" in2="BackgroundImageFix" mode="normal" result="shape"/><feColorMatrix in="SourceAlpha" result="hardAlpha" type="matrix" values="0 0 0 0 0 0 0 0 0 0 0 0 0 0 0 0 0 0 127 0"/><feOffset dx="4" dy="4"/><feGaussianBlur stdDeviation="2"/><feComposite in2="hardAlpha" k2="-1" k3="1" operator="arithmetic"/><feColorMatrix type="matrix" values="0 0 0 0 0 0 0 0 0 0 0 0 0 0 0 0 0 0 0.25 0"/><feBlend in2="shape" mode="normal" result="effect1_innerShadow"/></filter></defs></svg>