<svg xmlns="http://www.w3.org/2000/svg" width="651" height="532" fill="none" viewBox="0 0 651 532"><circle cx="250" cy="250" r="250" fill="#4DB2C8"/><g filter="url(#filter0_d)"><circle cx="443" cy="269" r="200" fill="#C7D1D1"/></g><path fill="#000" fill-rule="evenodd" d="M197.623 113.241C204.735 125.326 217.54 153.976 213.967 159.941L183.624 168.071C183.607 168.019 183.589 167.966 183.572 167.913C171.992 169.682 160.69 162.49 157.588 150.912L151.859 129.532C148.53 117.108 155.903 104.338 168.327 101.009L170.419 100.448C181.563 97.4622 192.984 103.085 197.623 113.241Z" clip-rule="evenodd"/><path fill="#FFD2B9" fill-rule="evenodd" d="M168.311 143.795C161.986 139.478 156.881 133.478 155.363 125.629C150.987 103.015 183.465 99.5454 192.53 109.122C201.594 118.699 208.487 147.305 201.187 151.407C198.276 153.042 191.095 152.871 183.235 150.638L195.478 179.32L170.367 186.049L168.311 143.795Z" clip-rule="evenodd"/><path fill="#000" fill-rule="evenodd" d="M174.094 138.227C178.552 150.235 181.857 164.427 179.304 168.69L148.961 176.82C139.469 148.159 158.829 155.055 151.484 127.644C152.239 126.384 152.94 125.15 153.666 124.053L153.417 123.256C155.814 111.186 161.052 104.07 169.129 101.905C181.246 98.6586 186.567 103.222 191.095 107.094C190.879 116.027 181.758 119.787 174.745 127.198C173.542 126.667 172.152 126.527 170.777 126.895C167.599 127.747 165.707 130.991 166.551 134.141C167.395 137.291 170.656 139.155 173.834 138.303C173.922 138.28 174.008 138.254 174.094 138.227Z" clip-rule="evenodd"/><path fill="#E29164" fill-rule="evenodd" d="M142.942 379.342C168.928 386.582 191.348 390.202 210.202 390.202C229.055 390.202 246.568 384.628 262.738 373.478C237.309 366.046 216.366 362.331 199.911 362.331C183.456 362.331 164.466 368.001 142.942 379.342Z" clip-rule="evenodd"/><path fill="#FFD2B9" fill-rule="evenodd" d="M232.697 400.638C232.446 400.263 232.235 399.855 232.067 399.413C228.594 390.262 172.957 291.549 167.415 273.501H230.053C234.267 287.223 253.235 373.334 255.905 390.514C264.327 417.614 281.668 505.382 283.882 511.462C286.21 517.859 273.107 524.522 269.615 516.658C264.059 504.146 250.821 469.525 244.927 448.386C239.401 428.568 234.901 410.738 232.697 400.638Z" clip-rule="evenodd"/><path fill="#FFD2B9" fill-rule="evenodd" d="M181.45 412.69C156.014 419.094 62.9745 430.672 56.5897 432.488C50.0217 434.356 44.2629 420.87 52.3812 417.949C65.2989 413.3 100.893 402.561 122.474 398.178C139.832 394.653 155.671 391.776 166.306 390.092C165.405 360.335 161.286 288.924 163.986 273.501H219.409C216.821 288.291 194.939 396.207 190.872 407.009C189.582 410.866 185.731 412.57 181.45 412.69Z" clip-rule="evenodd"/><path fill="#000" fill-rule="evenodd" d="M52.8884 414.262C49.4921 413.63 47.0031 413.454 45.4214 413.733C43.4977 414.072 40.7471 414.887 37.1695 416.179C37.563 418.41 41.0994 438.466 47.7787 476.346C53.2234 476.999 55.8549 475.604 55.673 472.163C55.4912 468.721 55.3699 465.857 55.3091 463.57L62.8452 433.407C62.9902 432.826 62.6372 432.238 62.0568 432.093C62.0469 432.091 62.0369 432.089 62.0269 432.086L57.3495 431.058C55.3446 428.196 54.1702 425.79 53.8264 423.84C53.5471 422.256 53.8011 419.956 54.5885 416.939L54.5885 416.939C54.8907 415.781 54.1971 414.598 53.0394 414.295C52.9895 414.282 52.9391 414.271 52.8884 414.262Z" clip-rule="evenodd"/><path fill="#000" fill-rule="evenodd" d="M265.639 515.746C264.427 518.981 263.821 521.402 263.821 523.008C263.821 524.961 264.147 527.812 264.798 531.559C267.064 531.559 287.429 531.559 325.894 531.559C327.481 526.311 326.565 523.477 323.144 523.058C319.723 522.64 316.882 522.262 314.619 521.925L286.223 509.265C285.676 509.022 285.036 509.267 284.792 509.814C284.788 509.823 284.784 509.832 284.78 509.842L282.955 514.27C279.788 515.747 277.215 516.486 275.235 516.486C273.627 516.486 271.405 515.836 268.571 514.537L268.571 514.537C267.483 514.038 266.197 514.516 265.699 515.603C265.677 515.65 265.657 515.698 265.639 515.746Z" clip-rule="evenodd"/><path fill="#FAE7A3" fill-rule="evenodd" d="M164.165 273.501C188.588 266.54 211.697 266.54 233.491 273.501C241.074 307.963 259.498 321.641 262.738 374.477C225.909 392.706 180.413 361.476 142.5 379.253C131.668 354.387 146.833 294.504 164.165 273.501Z" clip-rule="evenodd"/><path fill="#FFD2B9" fill-rule="evenodd" d="M221.948 202.133L255.417 175.424C260.292 167.063 265.362 160.342 270.628 155.263C272.321 154.182 275.433 153.16 273.377 158.961C271.32 164.762 269.419 170.956 271.227 172.312C273.035 173.669 276.429 170.73 278.72 173.11C280.247 174.696 274.267 178.683 260.779 185.069L238.197 214.326L221.948 202.133ZM282.942 208.934L297.639 197.175C298.397 188.132 300.358 183.303 303.523 182.689C305.762 181.13 303.441 192.798 307.896 191.036C312.351 189.274 322.16 178.936 324.403 180.288C327.721 182.289 326.515 190.442 324.169 194.805C319.785 202.96 315.541 206.233 304.551 211.476C298.805 214.218 292.865 218.73 286.732 225.012L282.942 208.934Z" clip-rule="evenodd"/><path fill="#BA612E" fill-rule="evenodd" d="M203.123 200.817C216.068 198.394 232.882 192.619 249.28 177.709L259.363 192.513C248.851 207.327 232.774 220.811 217.047 223.133C204.654 224.963 195.733 211.231 203.123 200.817Z" clip-rule="evenodd"/><path fill="#E29164" fill-rule="evenodd" d="M225.133 223.528C239.505 224.517 261.883 216.417 292.269 199.226C303.226 214.358 309.022 225.501 309.659 232.655C284.404 252.009 261.711 262.654 242.154 266.541C244.822 278.022 245.349 289.302 242.363 300.22C236.224 322.666 175.502 313.588 156.889 320.764C137.937 283.877 158.484 263.905 154.101 238.938C149.301 211.595 163.942 165.625 167.188 165.053L196.787 159.833C202.102 180.424 214.379 201.985 225.133 223.528Z" clip-rule="evenodd"/><defs><filter id="filter0_d" width="408" height="408" x="243" y="69" color-interpolation-filters="sRGB" filterUnits="userSpaceOnUse"><feFlood flood-opacity="0" result="BackgroundImageFix"/><feColorMatrix in="SourceAlpha" type="matrix" values="0 0 0 0 0 0 0 0 0 0 0 0 0 0 0 0 0 0 127 0"/><feOffset dx="4" dy="4"/><feGaussianBlur stdDeviation="2"/><feColorMatrix type="matrix" values="0 0 0 0 0 0 0 0 0 0 0 0 0 0 0 0 0 0 0.25 0"/><feBlend in2="BackgroundImageFix" mode="normal" result="effect1_dropShadow"/><feBlend in="SourceGraphic" in2="effect1_dropShadow" mode="normal" result="shape"/></filter></defs></svg>